<?xml version="1.0" encoding="UTF-8"?>
<svg xmlns="http://www.w3.org/2000/svg" xmlns:xlink="http://www.w3.org/1999/xlink" width="16px" height="16px" viewBox="0 0 16 16" version="1.1">
<g id="surface1">
<path style="fill:none;stroke-width:2;stroke-linecap:round;stroke-linejoin:round;stroke:rgb(30.588235%,35.294118%,91.764706%);stroke-opacity:1;stroke-miterlimit:4;" d="M 27.203125 27.898438 L 24.398438 22.296875 C 27.492188 22.296875 30 19.789062 30 16.703125 L 30 9.703125 C 30 6.609375 27.492188 4.101562 24.398438 4.101562 L 7.601562 4.101562 C 4.507812 4.101562 2 6.609375 2 9.703125 L 2 16.703125 C 2 19.789062 4.507812 22.296875 7.601562 22.296875 L 16 22.296875 Z M 27.203125 27.898438 " transform="matrix(0.5,0,0,0.5,0,0)"/>
<path style=" stroke:none;fill-rule:nonzero;fill:rgb(58.431373%,61.176471%,94.901961%);fill-opacity:1;" d="M 5.199219 6.601562 C 5.199219 6.988281 4.886719 7.300781 4.5 7.300781 C 4.113281 7.300781 3.800781 6.988281 3.800781 6.601562 C 3.800781 6.214844 4.113281 5.898438 4.5 5.898438 C 4.886719 5.898438 5.199219 6.214844 5.199219 6.601562 Z M 5.199219 6.601562 "/>
<path style=" stroke:none;fill-rule:nonzero;fill:rgb(58.431373%,61.176471%,94.901961%);fill-opacity:1;" d="M 8.699219 6.601562 C 8.699219 6.988281 8.386719 7.300781 8 7.300781 C 7.613281 7.300781 7.300781 6.988281 7.300781 6.601562 C 7.300781 6.214844 7.613281 5.898438 8 5.898438 C 8.386719 5.898438 8.699219 6.214844 8.699219 6.601562 Z M 8.699219 6.601562 "/>
<path style=" stroke:none;fill-rule:nonzero;fill:rgb(58.431373%,61.176471%,94.901961%);fill-opacity:1;" d="M 12.199219 6.601562 C 12.199219 6.988281 11.886719 7.300781 11.5 7.300781 C 11.113281 7.300781 10.800781 6.988281 10.800781 6.601562 C 10.800781 6.214844 11.113281 5.898438 11.5 5.898438 C 11.886719 5.898438 12.199219 6.214844 12.199219 6.601562 Z M 12.199219 6.601562 "/>
</g>
</svg>
