<?xml version="1.0" encoding="UTF-8"?>
<svg xmlns="http://www.w3.org/2000/svg" xmlns:xlink="http://www.w3.org/1999/xlink" width="16px" height="16px" viewBox="0 0 16 16" version="1.1">
<g id="surface1">
<path style=" stroke:none;fill-rule:nonzero;fill:rgb(0%,0%,0%);fill-opacity:1;" d="M 8 1.5 C 6.105469 1.5 4.382812 2.054688 3.109375 2.988281 C 1.835938 3.917969 1 5.253906 1 6.75 C 1 8.5625 2.234375 10.101562 4 11.023438 L 4 14.5 L 7.375 11.96875 C 7.578125 11.984375 7.785156 12 8 12 C 9.894531 12 11.617188 11.445312 12.890625 10.515625 C 14.164062 9.582031 15 8.246094 15 6.75 C 15 5.253906 14.164062 3.917969 12.890625 2.988281 C 11.617188 2.054688 9.894531 1.5 8 1.5 Z M 8 2.5 C 9.695312 2.5 11.222656 3.007812 12.300781 3.796875 C 13.378906 4.582031 14 5.625 14 6.75 C 14 7.875 13.378906 8.917969 12.300781 9.703125 C 11.222656 10.492188 9.695312 11 8 11 C 7.753906 11 7.507812 10.984375 7.261719 10.960938 L 7.070312 10.945312 L 5 12.5 L 5 10.429688 L 4.710938 10.296875 C 3.035156 9.507812 2 8.195312 2 6.75 C 2 5.625 2.621094 4.582031 3.699219 3.796875 C 4.777344 3.007812 6.304688 2.5 8 2.5 Z M 8 2.5 "/>
</g>
</svg>
